<svg width="22" height="22" viewBox="0 0 22 22" fill="none" xmlns="http://www.w3.org/2000/svg">
<rect width="22" height="22" fill="#1A1A1A"/>
<path d="M9.76251 2.81873C9.91853 2.99236 10.1093 3.13121 10.3226 3.22626C10.5358 3.32131 10.7666 3.37043 11 3.37043C11.2334 3.37043 11.4643 3.32131 11.6775 3.22626C11.8907 3.13121 12.0815 2.99236 12.2375 2.81873L13.0488 1.92498C13.2817 1.67015 13.5871 1.49272 13.9238 1.41652C14.2605 1.34032 14.6125 1.36901 14.9325 1.49873C15.2523 1.63167 15.523 1.86031 15.7077 2.15327C15.8923 2.44624 15.9818 2.78916 15.9638 3.13498V4.33123C15.9475 4.56656 15.9818 4.80264 16.0645 5.02356C16.1472 5.24448 16.2763 5.4451 16.4431 5.6119C16.6099 5.7787 16.8105 5.90779 17.0314 5.99048C17.2524 6.07317 17.4884 6.10752 17.7238 6.09123H18.92C19.2658 6.07322 19.6088 6.16266 19.9017 6.3473C20.1947 6.53194 20.4233 6.80273 20.5563 7.12249C20.686 7.44245 20.7147 7.79444 20.6385 8.13119C20.5623 8.46793 20.3848 8.77329 20.13 9.00624L19.25 9.76249C19.0764 9.91851 18.9375 10.1093 18.8425 10.3225C18.7474 10.5357 18.6983 10.7666 18.6983 11C18.6983 11.2334 18.7474 11.4642 18.8425 11.6774C18.9375 11.8906 19.0764 12.0815 19.25 12.2375L20.1438 13.0487C20.3986 13.2817 20.576 13.587 20.6522 13.9238C20.7284 14.2605 20.6997 14.6125 20.57 14.9325C20.4371 15.2522 20.2084 15.523 19.9155 15.7077C19.6225 15.8923 19.2796 15.9818 18.9338 15.9637H17.7375C17.5022 15.9474 17.2661 15.9818 17.0452 16.0645C16.8243 16.1472 16.6236 16.2763 16.4568 16.4431C16.29 16.6099 16.161 16.8105 16.0783 17.0314C15.9956 17.2523 15.9612 17.4884 15.9775 17.7237V18.92C15.9955 19.2658 15.9061 19.6087 15.7214 19.9017C15.5368 20.1947 15.266 20.4233 14.9463 20.5562C14.6263 20.686 14.2743 20.7146 13.9376 20.6384C13.6008 20.5623 13.2955 20.3848 13.0625 20.13L12.2375 19.25C12.0815 19.0764 11.8907 18.9375 11.6775 18.8425C11.4643 18.7474 11.2334 18.6983 11 18.6983C10.7666 18.6983 10.5358 18.7474 10.3226 18.8425C10.1093 18.9375 9.91853 19.0764 9.76251 19.25L8.95126 20.1437C8.71831 20.3986 8.41296 20.576 8.07621 20.6522C7.73947 20.7284 7.38747 20.6997 7.06751 20.57C6.74775 20.437 6.47697 20.2084 6.29233 19.9154C6.10769 19.6225 6.01824 19.2796 6.03626 18.9337V17.7375C6.05255 17.5022 6.01819 17.2661 5.9355 17.0452C5.85281 16.8242 5.72372 16.6236 5.55692 16.4568C5.39012 16.29 5.1895 16.1609 4.96858 16.0782C4.74766 15.9956 4.51158 15.9612 4.27626 15.9775H3.08001C2.73418 15.9955 2.39126 15.9061 2.0983 15.7214C1.80534 15.5368 1.5767 15.266 1.44376 14.9462C1.31404 14.6263 1.28534 14.2743 1.36154 13.9375C1.43774 13.6008 1.61518 13.2954 1.87001 13.0625L2.76376 12.2512C2.93738 12.0952 3.07624 11.9044 3.17129 11.6912C3.26633 11.478 3.31546 11.2472 3.31546 11.0137C3.31546 10.7803 3.26633 10.5495 3.17129 10.3363C3.07624 10.1231 2.93738 9.93226 2.76376 9.77623L1.87001 8.96499C1.61518 8.73204 1.43774 8.42668 1.36154 8.08994C1.28534 7.75319 1.31404 7.40119 1.44376 7.08123C1.5767 6.76148 1.80534 6.49069 2.0983 6.30605C2.39126 6.12142 2.73418 6.03197 3.08001 6.04998H4.27626C4.5123 6.07397 4.75074 6.04677 4.97531 5.97023C5.19989 5.8937 5.40532 5.76963 5.57759 5.6065C5.74986 5.44336 5.88493 5.24499 5.97357 5.02491C6.06222 4.80484 6.10236 4.56823 6.09126 4.33123V3.13498C6.07324 2.78916 6.16269 2.44624 6.34733 2.15327C6.53197 1.86031 6.80275 1.63167 7.12251 1.49873C7.44247 1.36901 7.79447 1.34032 8.13121 1.41652C8.46796 1.49272 8.77331 1.67015 9.00626 1.92498L9.76251 2.81873Z" stroke="white" stroke-width="1.83333" stroke-linecap="round" stroke-linejoin="round"/>
<path d="M11 14.0938C12.7086 14.0938 14.0938 12.7086 14.0938 11C14.0938 9.29137 12.7086 7.90625 11 7.90625C9.29138 7.90625 7.90626 9.29137 7.90626 11C7.90626 12.7086 9.29138 14.0938 11 14.0938Z" stroke="white" stroke-width="1.83333" stroke-linecap="round" stroke-linejoin="round"/>
</svg>
