<svg width="22" height="22" viewBox="0 0 22 22" fill="none" xmlns="http://www.w3.org/2000/svg">
<g clip-path="url(#clip0_1_526)">
<rect width="22" height="22" fill="#1A1A1A"/>
<path d="M17.4616 6.1875H4.52467C4.21401 6.17483 3.90932 6.27537 3.66721 6.47044C3.4251 6.66551 3.26205 6.94184 3.20834 7.24808L1.37501 20.0035C1.36551 20.1786 1.39314 20.3537 1.4561 20.5174C1.51905 20.6811 1.6159 20.8296 1.74028 20.9532C1.86467 21.0768 2.01379 21.1727 2.17785 21.2346C2.34191 21.2966 2.51722 21.3231 2.69226 21.3125H19.294C19.469 21.3231 19.6443 21.2966 19.8083 21.2346C19.9723 21.1727 20.1214 21.0768 20.2457 20.9532C20.37 20.8295 20.4668 20.681 20.5296 20.5173C20.5925 20.3537 20.62 20.1786 20.6103 20.0035L18.777 7.24808C18.7233 6.942 18.5604 6.6658 18.3185 6.47075C18.0766 6.2757 17.7721 6.17506 17.4616 6.1875V6.1875Z" stroke="white" stroke-width="1.83333" stroke-linecap="round" stroke-linejoin="round"/>
<path d="M14.3568 3.48975C14.2062 2.70318 13.7868 1.99347 13.1703 1.48222C12.5539 0.970971 11.7789 0.690018 10.978 0.6875V0.6875C10.1811 0.690995 9.40999 0.97031 8.7957 1.47798C8.18142 1.98565 7.76187 2.69035 7.60834 3.47233" stroke="white" stroke-width="1.83333" stroke-linecap="round" stroke-linejoin="round"/>
</g>
<defs>
<clipPath id="clip0_1_526">
<rect width="22" height="22" fill="white"/>
</clipPath>
</defs>
</svg>
