<svg width="24" height="24" viewBox="0 0 24 24" fill="none" xmlns="http://www.w3.org/2000/svg">
<rect width="22" height="22" transform="translate(1 1)" fill="#1A1A1A"/>
<path d="M12.582 8.66072L9.6782 8.66072C7.9848 8.66072 6.36076 9.34366 5.16334 10.5593C3.96593 11.7749 3.29323 13.4237 3.29323 15.1429C3.29323 16.862 3.96593 18.5108 5.16334 19.7264C6.36076 20.9421 7.9848 21.625 9.6782 21.625L20.7083 21.625" stroke="white" stroke-width="1.83333" stroke-linecap="round" stroke-linejoin="round"/>
<path d="M10.2602 11.0179L12.582 8.66072L10.2602 6.30357" stroke="white" stroke-width="1.83333" stroke-linecap="round" stroke-linejoin="round"/>
<path d="M11.418 15.3393L14.3218 15.3393C16.0152 15.3393 17.6393 14.6563 18.8367 13.4407C20.0341 12.2251 20.7068 10.5763 20.7068 8.85714C20.7068 7.13796 20.0341 5.48921 18.8367 4.27357C17.6393 3.05793 16.0152 2.37499 14.3218 2.37499L3.29167 2.37499" stroke="white" stroke-width="1.83333" stroke-linecap="round" stroke-linejoin="round"/>
<path d="M13.7398 12.9821L11.418 15.3393L13.7398 17.6964" stroke="white" stroke-width="1.83333" stroke-linecap="round" stroke-linejoin="round"/>
</svg>
