<svg width="22" height="22" viewBox="0 0 22 22" fill="none" xmlns="http://www.w3.org/2000/svg">
<g clip-path="url(#clip0_1_518)">
<rect width="22" height="22" fill="#1A1A1A"/>
<path d="M19.9375 16.9583V18.3333C19.9375 19.0626 19.6477 19.7621 19.132 20.2779C18.6163 20.7936 17.9168 21.0833 17.1875 21.0833H3.4375C2.70815 21.0833 2.00868 20.7936 1.49296 20.2779C0.977231 19.7621 0.6875 19.0626 0.6875 18.3333V8.70833C0.6875 7.97898 0.977231 7.27951 1.49296 6.76379C2.00868 6.24806 2.70815 5.95833 3.4375 5.95833H17.1875C17.9168 5.95833 18.6163 6.24806 19.132 6.76379C19.6477 7.27951 19.9375 7.97898 19.9375 8.70833V10.0833" stroke="white" stroke-width="1.83333" stroke-linecap="round" stroke-linejoin="round"/>
<path d="M17.1875 5.95833L15.0526 1.6885C14.9718 1.52692 14.8601 1.38283 14.7236 1.26446C14.5872 1.14609 14.4288 1.05577 14.2574 0.99865C14.0861 0.941524 13.9051 0.918726 13.7249 0.93156C13.5448 0.944384 13.3689 0.992591 13.2073 1.07341L3.4375 5.95833" stroke="white" stroke-width="1.83333" stroke-linecap="round" stroke-linejoin="round"/>
<path d="M19.9375 16.9583C20.3022 16.9583 20.6519 16.8135 20.9098 16.5556C21.1677 16.2978 21.3125 15.948 21.3125 15.5833V11.4583C21.3125 11.0937 21.1677 10.7439 20.9098 10.486C20.6519 10.2282 20.3022 10.0833 19.9375 10.0833H16.5C15.5883 10.0833 14.714 10.4455 14.0693 11.0901C13.4247 11.7348 13.0625 12.6091 13.0625 13.5208C13.0625 14.4325 13.4247 15.3069 14.0693 15.9516C14.714 16.5962 15.5883 16.9583 16.5 16.9583H19.9375Z" stroke="white" stroke-width="1.83333" stroke-linecap="round" stroke-linejoin="round"/>
</g>
<defs>
<clipPath id="clip0_1_518">
<rect width="22" height="22" fill="white"/>
</clipPath>
</defs>
</svg>
