<svg width="48" height="48" viewBox="0 0 48 48" fill="none" xmlns="http://www.w3.org/2000/svg">
<path d="M24 48C37.2548 48 48 37.2548 48 24C48 10.7452 37.2548 0 24 0C10.7452 0 0 10.7452 0 24C0 37.2548 10.7452 48 24 48Z" fill="#627EEA"/>
<path d="M24.7479 5.99677V19.3024L35.9934 24.3281L24.7479 5.99677Z" fill="white" fill-opacity="0.602"/>
<path d="M24.7479 5.99677L13.5024 24.3281L24.7479 19.3024V5.99677Z" fill="white"/>
<path d="M24.7479 32.9492V41.9902L36 26.421L24.7479 32.9492Z" fill="white" fill-opacity="0.602"/>
<path d="M24.7479 41.9902V32.9492L13.5024 26.421L24.7479 41.9902Z" fill="white"/>
<path d="M24.7479 30.8562L35.9934 24.328L24.7479 19.3023V30.8562Z" fill="white" fill-opacity="0.2"/>
<path d="M13.5024 24.328L24.7479 30.8562V19.3023L13.5024 24.328Z" fill="white" fill-opacity="0.602"/>
</svg>