<svg width="40" height="40" viewBox="0 0 40 40" fill="none" xmlns="http://www.w3.org/2000/svg">
<rect width="40" height="40" rx="10.6667" fill="#1459F5"/>
<path d="M21.0003 14.7526L22.9993 19.6667H30.0003C29.1603 18.1485 27.3003 13.2476 26.5803 11.9803C25.8603 10.713 25.3203 10.185 24.6003 10.3962C22.4403 11.0298 21.3603 13.4984 21.0003 14.7526Z" fill="white"/>
<path d="M21.0003 25.0495L22.8003 21.6832L30.0003 19.6667C29.1603 21.1848 27.3003 26.5545 26.5803 27.8218C25.8603 29.0891 25.3203 29.6171 24.6003 29.4059C22.4403 28.7723 21.3603 26.3037 21.0003 25.0495Z" fill="white"/>
<path d="M15.6523 10H20.4124L15.0123 20.099L20.4124 30H15.4997C14.4917 30 14.3923 29.604 14.2123 29.4059C12.8323 26.8977 9.96433 21.6832 9.53232 20.8911C9.10032 20.099 9.47232 19.1089 9.71232 18.7129C10.5523 17.1287 12.4123 13.5644 13.1323 11.9802C13.8523 10.396 15.1123 10 15.6523 10Z" fill="white"/>
</svg>