<svg width="24" height="24" viewBox="0 0 24 24" fill="none" xmlns="http://www.w3.org/2000/svg">
<path fill-rule="evenodd" clip-rule="evenodd" d="M4.3944 2.10254L0.0183571 11.2944C0.001705 11.3286 -0.00357194 11.3672 0.00329797 11.4046C0.0101679 11.442 0.0288242 11.4763 0.0565388 11.5023L11.8752 22.8274C11.9087 22.8596 11.9535 22.8776 12 22.8776C12.0465 22.8776 12.0912 22.8596 12.1248 22.8274L23.9434 11.503C23.9711 11.477 23.9898 11.4427 23.9966 11.4053C24.0035 11.3679 23.9982 11.3293 23.9816 11.2951L19.6055 2.10325C19.5914 2.07238 19.5687 2.04622 19.5401 2.02792C19.5115 2.00961 19.4783 1.99992 19.4443 2.00001H4.55702C4.52292 1.99959 4.48941 2.00904 4.46056 2.02724C4.4317 2.04543 4.40872 2.07158 4.3944 2.10254Z" fill="#50AF95"/>
<path fill-rule="evenodd" clip-rule="evenodd" d="M13.5184 12.2384C13.4335 12.2447 12.9951 12.2709 12.0173 12.2709C11.2395 12.2709 10.6873 12.2475 10.4935 12.2384C7.4878 12.1061 5.24427 11.5829 5.24427 10.9564C5.24427 10.33 7.4878 9.80745 10.4935 9.67311V11.7172C10.6901 11.7314 11.2529 11.7646 12.0307 11.7646C12.964 11.7646 13.4314 11.7257 13.5155 11.7179V9.67452C16.5149 9.80816 18.7535 10.3314 18.7535 10.9564C18.7535 11.5815 16.5156 12.1047 13.5155 12.2376L13.5184 12.2384ZM13.5184 9.46311V7.63393H17.7042V4.84454H6.3077V7.63393H10.4928V9.4624C7.09113 9.61866 4.53296 10.2925 4.53296 11.1C4.53296 11.9074 7.09113 12.5806 10.4928 12.7375V18.5991H13.5177V12.7354C16.9116 12.5792 19.4655 11.906 19.4655 11.0993C19.4655 10.2925 16.9137 9.61937 13.5177 9.4624L13.5184 9.46311Z" fill="white"/>
</svg>
